<svg xmlns="http://www.w3.org/2000/svg" width="1920.321" height="148.892" viewBox="0 0 1920.321 148.892">
  <path id="movie_stripe-01" data-name="movie stripe-01" d="M1886.207,128.476h11.272a2.635,2.635,0,0,1,1.052.2V122.43H-21.79V271.322H1898.494v-6.756a3.387,3.387,0,0,1-1.052.169h-11.273a2.8,2.8,0,0,1-2.931-2.635v-7.4a2.47,2.47,0,0,1,.847-1.873,3.069,3.069,0,0,1,2.084-.761h11.272a3.393,3.393,0,0,1,1.052.169V140.974a2.634,2.634,0,0,1-1.052.2h-11.272a2.8,2.8,0,0,1-2.931-2.635v-7.431a2.508,2.508,0,0,1,.872-1.875,3.112,3.112,0,0,1,2.1-.759Zm-28.932,2.635a2.471,2.471,0,0,1,.847-1.873,3.07,3.07,0,0,1,2.084-.762h11.273a2.794,2.794,0,0,1,2.931,2.635v7.431a2.8,2.8,0,0,1-2.931,2.635h-11.273a3.07,3.07,0,0,1-2.084-.762,2.471,2.471,0,0,1-.847-1.873Zm-26.039,0a2.8,2.8,0,0,1,2.931-2.635h11.272a3.111,3.111,0,0,1,2.1.76,2.509,2.509,0,0,1,.872,1.875v7.431a2.509,2.509,0,0,1-.872,1.875,3.112,3.112,0,0,1-2.1.76h-11.272a2.794,2.794,0,0,1-2.93-2.635Zm-52.041,0a2.794,2.794,0,0,1,2.931-2.635H1793.4a2.8,2.8,0,0,1,2.931,2.635v7.431a2.8,2.8,0,0,1-2.931,2.635h-11.272a2.8,2.8,0,0,1-2.931-2.635Zm-26,0a2.472,2.472,0,0,1,.847-1.873,3.069,3.069,0,0,1,2.084-.762H1767.4a2.8,2.8,0,0,1,2.931,2.635v7.431a2.8,2.8,0,0,1-2.931,2.635h-11.272a3.07,3.07,0,0,1-2.084-.762,2.472,2.472,0,0,1-.847-1.873Zm-26.039,0a2.8,2.8,0,0,1,2.931-2.635h11.273a2.8,2.8,0,0,1,2.931,2.635v7.431a2.794,2.794,0,0,1-2.931,2.635h-11.273a2.8,2.8,0,0,1-2.931-2.635Zm-26,0a2.794,2.794,0,0,1,2.931-2.635h11.273a2.8,2.8,0,0,1,2.931,2.635v7.431a2.8,2.8,0,0,1-2.931,2.635h-11.273a2.8,2.8,0,0,1-2.931-2.635Zm-26.039,0a2.8,2.8,0,0,1,2.931-2.635h11.272a2.8,2.8,0,0,1,2.931,2.635v7.431a2.8,2.8,0,0,1-2.931,2.635h-11.272a2.8,2.8,0,0,1-2.931-2.635Zm-26,0a2.8,2.8,0,0,1,2.931-2.635h11.272a3.069,3.069,0,0,1,2.084.762,2.472,2.472,0,0,1,.847,1.873v7.431a2.473,2.473,0,0,1-.847,1.873,3.069,3.069,0,0,1-2.084.762h-11.272a2.8,2.8,0,0,1-2.931-2.635Zm-25.926,0a2.51,2.51,0,0,1,.872-1.875,3.112,3.112,0,0,1,2.1-.76h11.272a2.794,2.794,0,0,1,2.931,2.635v7.431a2.794,2.794,0,0,1-2.931,2.635h-11.272a3.112,3.112,0,0,1-2.1-.76,2.509,2.509,0,0,1-.872-1.875Zm-26,0a2.8,2.8,0,0,1,2.931-2.635h11.272a3.07,3.07,0,0,1,2.083.762,2.472,2.472,0,0,1,.847,1.873v7.431a2.473,2.473,0,0,1-.847,1.873,3.07,3.07,0,0,1-2.083.762h-11.272a2.8,2.8,0,0,1-2.931-2.635Zm-26,0a2.47,2.47,0,0,1,.847-1.873,3.069,3.069,0,0,1,2.084-.762h11.273a2.8,2.8,0,0,1,2.931,2.635v7.431a2.8,2.8,0,0,1-2.931,2.635h-11.272a3.07,3.07,0,0,1-2.084-.762,2.472,2.472,0,0,1-.847-1.873Zm-26.039,0a2.8,2.8,0,0,1,2.931-2.635h11.272a3.069,3.069,0,0,1,2.084.762,2.472,2.472,0,0,1,.847,1.873v7.431a2.472,2.472,0,0,1-.847,1.873,3.07,3.07,0,0,1-2.084.762h-11.272a2.8,2.8,0,0,1-2.931-2.635Zm-26,0a2.471,2.471,0,0,1,.847-1.873,3.07,3.07,0,0,1,2.084-.762h11.273a2.794,2.794,0,0,1,2.931,2.635v7.431a2.8,2.8,0,0,1-2.931,2.635h-11.273a3.071,3.071,0,0,1-2.084-.762,2.473,2.473,0,0,1-.847-1.873Zm-26.039,0a2.8,2.8,0,0,1,2.931-2.635h11.272a3.07,3.07,0,0,1,2.084.762,2.471,2.471,0,0,1,.847,1.873v7.431a2.472,2.472,0,0,1-.847,1.873,3.07,3.07,0,0,1-2.084.762h-11.272a2.8,2.8,0,0,1-2.931-2.635Zm-26,0a2.472,2.472,0,0,1,.847-1.873,3.069,3.069,0,0,1,2.083-.762H1481.3a2.8,2.8,0,0,1,2.931,2.635v7.431a2.8,2.8,0,0,1-2.931,2.635h-11.272a3.069,3.069,0,0,1-2.083-.762,2.472,2.472,0,0,1-.847-1.873Zm-26.039,0a2.8,2.8,0,0,1,2.931-2.635h11.272a2.8,2.8,0,0,1,2.931,2.635v7.431a2.8,2.8,0,0,1-2.931,2.635h-11.272a2.8,2.8,0,0,1-2.931-2.635Zm-26,0a2.8,2.8,0,0,1,2.931-2.635h11.272a2.8,2.8,0,0,1,2.931,2.635v7.431a2.8,2.8,0,0,1-2.931,2.635h-11.272a2.8,2.8,0,0,1-2.931-2.635Zm-26.039,0a2.8,2.8,0,0,1,2.931-2.635h11.272a2.794,2.794,0,0,1,2.931,2.635v7.431a2.8,2.8,0,0,1-2.931,2.635h-11.272a2.8,2.8,0,0,1-2.931-2.635Zm-26,0a2.8,2.8,0,0,1,2.931-2.635h11.272a2.794,2.794,0,0,1,2.931,2.635v7.431a2.8,2.8,0,0,1-2.931,2.635H1365.95a2.8,2.8,0,0,1-2.931-2.635Zm-26.039,0a2.8,2.8,0,0,1,2.931-2.635h11.272a2.794,2.794,0,0,1,2.931,2.635v7.431a2.8,2.8,0,0,1-2.931,2.635h-11.272a2.8,2.8,0,0,1-2.931-2.635Zm-51.965,0a2.8,2.8,0,0,1,2.931-2.635h11.272a2.8,2.8,0,0,1,2.931,2.635v7.431a2.8,2.8,0,0,1-2.931,2.635h-11.272a2.8,2.8,0,0,1-2.931-2.635Zm-26,0a2.8,2.8,0,0,1,2.931-2.635h11.272a3.069,3.069,0,0,1,2.083.762,2.472,2.472,0,0,1,.847,1.873v7.431a2.472,2.472,0,0,1-.847,1.873,3.069,3.069,0,0,1-2.083.762h-11.272a2.8,2.8,0,0,1-2.931-2.635Zm-26,0a2.472,2.472,0,0,1,.847-1.873,3.07,3.07,0,0,1,2.084-.762h11.272a2.8,2.8,0,0,1,2.931,2.635v7.431a2.8,2.8,0,0,1-2.931,2.635h-11.272a3.07,3.07,0,0,1-2.084-.762,2.472,2.472,0,0,1-.847-1.873Zm-26.039,0a2.8,2.8,0,0,1,2.931-2.635h11.272a3.07,3.07,0,0,1,2.084.762,2.472,2.472,0,0,1,.847,1.873v7.431a2.473,2.473,0,0,1-.847,1.873,3.07,3.07,0,0,1-2.084.762H1209.9a2.8,2.8,0,0,1-2.931-2.635Zm-26,0a2.471,2.471,0,0,1,.847-1.873,3.07,3.07,0,0,1,2.084-.762h11.273a2.8,2.8,0,0,1,2.931,2.635v7.431a2.8,2.8,0,0,1-2.931,2.635H1183.9a3.07,3.07,0,0,1-2.084-.762,2.472,2.472,0,0,1-.847-1.873Zm-26.039,0a2.8,2.8,0,0,1,2.931-2.635h11.272a3.07,3.07,0,0,1,2.084.762,2.471,2.471,0,0,1,.847,1.873v7.431a2.471,2.471,0,0,1-.847,1.873,3.07,3.07,0,0,1-2.084.762h-11.272a2.8,2.8,0,0,1-2.931-2.635Zm-26,0a2.472,2.472,0,0,1,.847-1.873,3.07,3.07,0,0,1,2.084-.762h11.272a2.8,2.8,0,0,1,2.931,2.635v7.431a2.8,2.8,0,0,1-2.931,2.635H1131.86a3.07,3.07,0,0,1-2.084-.762,2.472,2.472,0,0,1-.847-1.873Zm-26.039,0a2.8,2.8,0,0,1,2.931-2.635h11.272a2.794,2.794,0,0,1,2.931,2.635v7.431a2.8,2.8,0,0,1-2.931,2.635h-11.272a2.8,2.8,0,0,1-2.931-2.635Zm-26,0a2.472,2.472,0,0,1,.847-1.873,3.07,3.07,0,0,1,2.084-.762h11.272a2.8,2.8,0,0,1,2.931,2.635v7.431a2.8,2.8,0,0,1-2.931,2.635H1079.82a3.07,3.07,0,0,1-2.084-.762,2.471,2.471,0,0,1-.847-1.873Zm-26.039,0a2.8,2.8,0,0,1,2.931-2.635h11.272a2.8,2.8,0,0,1,2.931,2.635v7.431a2.8,2.8,0,0,1-2.931,2.635h-11.272a2.8,2.8,0,0,1-2.931-2.635Zm-26,0a2.8,2.8,0,0,1,2.931-2.635h11.272a2.8,2.8,0,0,1,2.931,2.635v7.431a2.8,2.8,0,0,1-2.931,2.635h-11.272a2.8,2.8,0,0,1-2.931-2.635Zm-26.039,0a2.8,2.8,0,0,1,2.931-2.635h11.272a2.8,2.8,0,0,1,2.931,2.635v7.431a2.794,2.794,0,0,1-2.931,2.635H1001.74a2.8,2.8,0,0,1-2.931-2.635Zm-26,0a2.8,2.8,0,0,1,2.931-2.635h11.272a2.8,2.8,0,0,1,2.931,2.635v7.431a2.8,2.8,0,0,1-2.931,2.635H975.738a2.8,2.8,0,0,1-2.931-2.635Zm-25.964,0a2.8,2.8,0,0,1,2.931-2.635h11.272a2.8,2.8,0,0,1,2.931,2.635v7.431a2.8,2.8,0,0,1-2.931,2.635H949.774a2.8,2.8,0,0,1-2.931-2.635Zm-26.3,0a2.8,2.8,0,0,1,2.931-2.635h11.272a3.069,3.069,0,0,1,2.084.762,2.472,2.472,0,0,1,.847,1.873v7.431a2.472,2.472,0,0,1-.847,1.873,3.07,3.07,0,0,1-2.084.762H923.472a2.8,2.8,0,0,1-2.931-2.635Zm-26.039,0a2.509,2.509,0,0,1,.872-1.875,3.112,3.112,0,0,1,2.1-.76h11.272a2.8,2.8,0,0,1,2.931,2.635v7.431a2.8,2.8,0,0,1-2.931,2.635H897.471a3.112,3.112,0,0,1-2.1-.76,2.509,2.509,0,0,1-.872-1.875Zm-26,0a2.8,2.8,0,0,1,2.931-2.635H882.7a3.07,3.07,0,0,1,2.084.762,2.471,2.471,0,0,1,.847,1.873v7.431a2.471,2.471,0,0,1-.847,1.873,3.07,3.07,0,0,1-2.084.762H871.432a2.8,2.8,0,0,1-2.931-2.635Zm-26,0a2.472,2.472,0,0,1,.847-1.873,3.07,3.07,0,0,1,2.084-.762H856.7a2.8,2.8,0,0,1,2.931,2.635v7.431a2.8,2.8,0,0,1-2.931,2.635H845.43a3.07,3.07,0,0,1-2.084-.762,2.472,2.472,0,0,1-.847-1.873Zm-52.041,0a2.472,2.472,0,0,1,.847-1.873,3.07,3.07,0,0,1,2.084-.762h11.272a2.8,2.8,0,0,1,2.931,2.635v7.431a2.8,2.8,0,0,1-2.931,2.635H793.389a3.07,3.07,0,0,1-2.084-.762,2.472,2.472,0,0,1-.847-1.873Zm-26.039,0a2.8,2.8,0,0,1,2.931-2.635h11.272a3.112,3.112,0,0,1,2.1.76,2.509,2.509,0,0,1,.872,1.875v7.431a2.509,2.509,0,0,1-.872,1.875,3.112,3.112,0,0,1-2.1.76H767.35a2.8,2.8,0,0,1-2.931-2.635Zm-26,0a2.472,2.472,0,0,1,.847-1.873,3.069,3.069,0,0,1,2.084-.762h11.272a2.8,2.8,0,0,1,2.931,2.635v7.431a2.8,2.8,0,0,1-2.931,2.635H741.349a3.069,3.069,0,0,1-2.084-.762,2.472,2.472,0,0,1-.847-1.873Zm-26.039,0a2.8,2.8,0,0,1,2.931-2.635h11.272a2.8,2.8,0,0,1,2.931,2.635v7.431a2.8,2.8,0,0,1-2.931,2.635H715.31a2.8,2.8,0,0,1-2.931-2.635Zm-26,0a2.8,2.8,0,0,1,2.931-2.635H700.58a2.794,2.794,0,0,1,2.931,2.635v7.431a2.8,2.8,0,0,1-2.931,2.635H689.308a2.8,2.8,0,0,1-2.931-2.635Zm-26.039,0a2.8,2.8,0,0,1,2.931-2.635h11.272a2.794,2.794,0,0,1,2.931,2.635v7.431a2.8,2.8,0,0,1-2.931,2.635H663.269a2.8,2.8,0,0,1-2.931-2.635Zm-26,0a2.8,2.8,0,0,1,2.931-2.635H648.54a2.8,2.8,0,0,1,2.931,2.635v7.431a2.8,2.8,0,0,1-2.931,2.635H637.267a2.8,2.8,0,0,1-2.931-2.635Zm-26.039,0a2.8,2.8,0,0,1,2.931-2.635H622.5a2.8,2.8,0,0,1,2.931,2.635v7.431a2.8,2.8,0,0,1-2.931,2.635H611.228a2.8,2.8,0,0,1-2.931-2.635Zm-25.927,0a2.8,2.8,0,0,1,2.931-2.635h11.272a3.07,3.07,0,0,1,2.084.762,2.472,2.472,0,0,1,.847,1.873v7.431a2.472,2.472,0,0,1-.847,1.873,3.07,3.07,0,0,1-2.084.762H585.3a2.8,2.8,0,0,1-2.931-2.635Zm-26.039,0a2.8,2.8,0,0,1,2.931-2.635h11.272a2.8,2.8,0,0,1,2.931,2.635v7.431a2.8,2.8,0,0,1-2.931,2.635H559.262a2.8,2.8,0,0,1-2.931-2.635Zm-26,0a2.8,2.8,0,0,1,2.931-2.635h11.272a3.069,3.069,0,0,1,2.084.762,2.472,2.472,0,0,1,.847,1.873v7.431a2.472,2.472,0,0,1-.847,1.873,3.07,3.07,0,0,1-2.084.762H533.261a2.8,2.8,0,0,1-2.931-2.635Zm-26,0a2.472,2.472,0,0,1,.847-1.873,3.07,3.07,0,0,1,2.084-.762h11.272a2.8,2.8,0,0,1,2.931,2.635v7.431a2.8,2.8,0,0,1-2.931,2.635H507.259a3.07,3.07,0,0,1-2.084-.762,2.472,2.472,0,0,1-.847-1.873Zm-52.041,0a2.472,2.472,0,0,1,.847-1.873,3.07,3.07,0,0,1,2.084-.762h11.272a2.8,2.8,0,0,1,2.931,2.635v7.431a2.8,2.8,0,0,1-2.931,2.635H455.219a3.07,3.07,0,0,1-2.084-.762,2.472,2.472,0,0,1-.847-1.873Zm-26.039,0a2.8,2.8,0,0,1,2.931-2.635h11.272a3.069,3.069,0,0,1,2.084.762,2.472,2.472,0,0,1,.847,1.873v7.431a2.472,2.472,0,0,1-.847,1.873,3.07,3.07,0,0,1-2.084.762H429.18a2.8,2.8,0,0,1-2.931-2.635Zm-26,0a2.472,2.472,0,0,1,.847-1.873,3.07,3.07,0,0,1,2.084-.762H414.45a2.8,2.8,0,0,1,2.931,2.635v7.431a2.8,2.8,0,0,1-2.931,2.635H403.178a3.07,3.07,0,0,1-2.084-.762,2.472,2.472,0,0,1-.847-1.873Zm-26.039,0a2.8,2.8,0,0,1,2.931-2.635h11.272a2.8,2.8,0,0,1,2.931,2.635v7.431a2.8,2.8,0,0,1-2.931,2.635H377.139a2.8,2.8,0,0,1-2.931-2.635Zm-26,0a2.472,2.472,0,0,1,.847-1.873,3.069,3.069,0,0,1,2.084-.762H362.41a2.8,2.8,0,0,1,2.931,2.635v7.431a2.8,2.8,0,0,1-2.931,2.635H351.137a3.07,3.07,0,0,1-2.084-.762,2.472,2.472,0,0,1-.847-1.873Zm-26.039,0a2.8,2.8,0,0,1,2.931-2.635H336.37a2.8,2.8,0,0,1,2.931,2.635v7.431a2.8,2.8,0,0,1-2.931,2.635H325.1a2.8,2.8,0,0,1-2.931-2.635Zm-26,0a2.8,2.8,0,0,1,2.931-2.635h11.272a2.8,2.8,0,0,1,2.931,2.635v7.431a2.8,2.8,0,0,1-2.931,2.635H299.1a2.8,2.8,0,0,1-2.931-2.635Zm-26.039,0a2.8,2.8,0,0,1,2.931-2.635H284.33a2.8,2.8,0,0,1,2.931,2.635v7.431a2.8,2.8,0,0,1-2.931,2.635H273.057a2.8,2.8,0,0,1-2.931-2.635Zm-25.926,0a2.8,2.8,0,0,1,2.931-2.635H258.4a3.069,3.069,0,0,1,2.084.762,2.472,2.472,0,0,1,.847,1.873v7.431a2.472,2.472,0,0,1-.847,1.873,3.07,3.07,0,0,1-2.084.762H247.131a2.8,2.8,0,0,1-2.931-2.635Zm-26.039,0a2.8,2.8,0,0,1,2.931-2.635h11.272a2.8,2.8,0,0,1,2.931,2.635v7.431a2.8,2.8,0,0,1-2.931,2.635H221.092a2.8,2.8,0,0,1-2.931-2.635Zm-26,0a2.8,2.8,0,0,1,2.931-2.635h11.272a3.07,3.07,0,0,1,2.084.762,2.472,2.472,0,0,1,.847,1.873v7.431a2.472,2.472,0,0,1-.847,1.873,3.07,3.07,0,0,1-2.084.762H195.09a2.8,2.8,0,0,1-2.931-2.635Zm-26,0a2.472,2.472,0,0,1,.847-1.873,3.07,3.07,0,0,1,2.084-.762h11.272a2.8,2.8,0,0,1,2.931,2.635v7.431a2.5,2.5,0,0,1-.844,1.919,3.107,3.107,0,0,1-2.124.783H169.051a3.07,3.07,0,0,1-2.084-.762,2.472,2.472,0,0,1-.847-1.873Zm-26.039,0a2.8,2.8,0,0,1,2.931-2.635h11.272a3.069,3.069,0,0,1,2.084.762,2.472,2.472,0,0,1,.847,1.873v7.431a2.476,2.476,0,0,1-.92,2.024,3.106,3.106,0,0,1-2.312.678H142.749a2.8,2.8,0,0,1-2.931-2.635Zm-26,0a2.472,2.472,0,0,1,.847-1.873,3.07,3.07,0,0,1,2.084-.762H128.32a2.8,2.8,0,0,1,2.931,2.635v7.431a2.8,2.8,0,0,1-2.931,2.635H117.048a3.07,3.07,0,0,1-2.084-.762,2.472,2.472,0,0,1-.847-1.873Zm-26.039,0a2.8,2.8,0,0,1,2.931-2.635h11.272a3.064,3.064,0,0,1,2.059.774,2.47,2.47,0,0,1,.834,1.861v7.431a2.472,2.472,0,0,1-.847,1.873,3.07,3.07,0,0,1-2.084.762H90.971a2.8,2.8,0,0,1-2.931-2.635Zm-26.039,0a2.472,2.472,0,0,1,.847-1.873,3.07,3.07,0,0,1,2.084-.762H76.242a2.8,2.8,0,0,1,2.931,2.635v7.431a2.8,2.8,0,0,1-2.931,2.635H64.97a3.07,3.07,0,0,1-2.084-.762,2.472,2.472,0,0,1-.847-1.873Zm-26.039,0a2.8,2.8,0,0,1,2.931-2.635H50.2a3.112,3.112,0,0,1,2.1.76,2.509,2.509,0,0,1,.872,1.875v7.431a2.509,2.509,0,0,1-.872,1.875,3.112,3.112,0,0,1-2.1.76H38.93A2.8,2.8,0,0,1,36,138.542Zm-26,0a2.472,2.472,0,0,1,.847-1.873,3.07,3.07,0,0,1,2.084-.762H24.2a2.8,2.8,0,0,1,2.931,2.635v7.431a2.8,2.8,0,0,1-2.931,2.635H12.929a3.07,3.07,0,0,1-2.084-.762A2.472,2.472,0,0,1,10,138.542ZM1.018,262.1a2.8,2.8,0,0,1-2.931,2.635H-13.185a2.8,2.8,0,0,1-2.931-2.635v-7.4a2.472,2.472,0,0,1,.847-1.873,3.07,3.07,0,0,1,2.084-.762H-1.913a3.07,3.07,0,0,1,2.084.762,2.472,2.472,0,0,1,.847,1.873Zm0-123.559a2.8,2.8,0,0,1-2.931,2.635H-13.185a2.8,2.8,0,0,1-2.931-2.635v-7.431a2.8,2.8,0,0,1,2.931-2.635H-1.913a2.8,2.8,0,0,1,2.931,2.635Zm26,123.559a2.8,2.8,0,0,1-2.931,2.635H12.816a3.07,3.07,0,0,1-2.084-.762,2.472,2.472,0,0,1-.847-1.873v-7.4a2.472,2.472,0,0,1,.847-1.873,3.07,3.07,0,0,1,2.084-.762H24.088a3.07,3.07,0,0,1,2.084.762,2.472,2.472,0,0,1,.847,1.873Zm26.039,0a2.509,2.509,0,0,1-.872,1.875,3.112,3.112,0,0,1-2.1.759H38.818a2.8,2.8,0,0,1-2.931-2.635v-7.4a2.472,2.472,0,0,1,.847-1.873,3.07,3.07,0,0,1,2.084-.762H50.09a3.111,3.111,0,0,1,2.1.76,2.509,2.509,0,0,1,.872,1.875Zm26,0a2.8,2.8,0,0,1-2.931,2.635H64.857a3.07,3.07,0,0,1-2.084-.762,2.472,2.472,0,0,1-.847-1.873v-7.4a2.472,2.472,0,0,1,.847-1.873,3.07,3.07,0,0,1,2.084-.762H76.129a3.07,3.07,0,0,1,2.084.762,2.472,2.472,0,0,1,.847,1.873Zm26,0a2.472,2.472,0,0,1-.847,1.873,3.069,3.069,0,0,1-2.084.762H90.858a2.8,2.8,0,0,1-2.931-2.635v-7.4a2.472,2.472,0,0,1,.847-1.873,3.07,3.07,0,0,1,2.084-.762h11.272a3.07,3.07,0,0,1,2.084.762,2.472,2.472,0,0,1,.847,1.873Zm26.039,0a2.8,2.8,0,0,1-2.931,2.635H116.9a3.07,3.07,0,0,1-2.084-.762,2.472,2.472,0,0,1-.847-1.873v-7.4a2.472,2.472,0,0,1,.847-1.873,3.07,3.07,0,0,1,2.084-.762H128.17a3.07,3.07,0,0,1,2.084.762,2.472,2.472,0,0,1,.847,1.873Zm26,0a2.472,2.472,0,0,1-.847,1.873,3.07,3.07,0,0,1-2.084.762H142.9a2.8,2.8,0,0,1-2.931-2.635v-7.4a2.472,2.472,0,0,1,.847-1.873,3.07,3.07,0,0,1,2.084-.762h11.272a3.07,3.07,0,0,1,2.084.762,2.472,2.472,0,0,1,.847,1.873Zm26.039,0a2.8,2.8,0,0,1-2.931,2.635h-11.16a3.07,3.07,0,0,1-2.084-.762,2.472,2.472,0,0,1-.847-1.873v-7.4a2.472,2.472,0,0,1,.847-1.873,3.07,3.07,0,0,1,2.084-.762h11.272a3.07,3.07,0,0,1,2.084.762,2.472,2.472,0,0,1,.847,1.873Zm26,0a2.472,2.472,0,0,1-.847,1.873,3.07,3.07,0,0,1-2.084.762H194.94a2.8,2.8,0,0,1-2.931-2.635v-7.4a2.472,2.472,0,0,1,.847-1.873,3.07,3.07,0,0,1,2.084-.762h11.272a3.07,3.07,0,0,1,2.084.762,2.472,2.472,0,0,1,.847,1.873Zm26.039,0a2.8,2.8,0,0,1-2.931,2.635H220.979a2.8,2.8,0,0,1-2.931-2.635v-7.4a2.472,2.472,0,0,1,.847-1.873,3.069,3.069,0,0,1,2.084-.762h11.272a3.07,3.07,0,0,1,2.084.762,2.472,2.472,0,0,1,.847,1.873Zm26,0a2.472,2.472,0,0,1-.847,1.873,3.069,3.069,0,0,1-2.084.762H246.981a2.8,2.8,0,0,1-2.931-2.635v-7.4a2.472,2.472,0,0,1,.847-1.873,3.07,3.07,0,0,1,2.084-.762h11.272a3.07,3.07,0,0,1,2.084.762,2.472,2.472,0,0,1,.847,1.873Zm26.039,0a2.8,2.8,0,0,1-2.931,2.635H273.02a2.8,2.8,0,0,1-2.931-2.635v-7.4a2.472,2.472,0,0,1,.847-1.873,3.07,3.07,0,0,1,2.084-.762h11.272a3.069,3.069,0,0,1,2.084.762,2.472,2.472,0,0,1,.847,1.873Zm26,0a2.8,2.8,0,0,1-2.931,2.635H299.021a2.8,2.8,0,0,1-2.931-2.635v-7.4a2.472,2.472,0,0,1,.847-1.873,3.07,3.07,0,0,1,2.084-.762h11.272a3.069,3.069,0,0,1,2.084.762,2.472,2.472,0,0,1,.847,1.873Zm26.039,0a2.8,2.8,0,0,1-2.931,2.635H325.06a2.8,2.8,0,0,1-2.931-2.635v-7.4a2.472,2.472,0,0,1,.847-1.873,3.07,3.07,0,0,1,2.084-.762h11.272a3.069,3.069,0,0,1,2.084.762,2.472,2.472,0,0,1,.847,1.873Zm26,0a2.8,2.8,0,0,1-2.931,2.635H351.062a3.07,3.07,0,0,1-2.084-.762,2.472,2.472,0,0,1-.847-1.873v-7.4a2.472,2.472,0,0,1,.847-1.873,3.069,3.069,0,0,1,2.084-.762h11.272a3.07,3.07,0,0,1,2.084.762,2.472,2.472,0,0,1,.847,1.873Zm26.039,0a2.8,2.8,0,0,1-2.931,2.635H377.1a2.8,2.8,0,0,1-2.931-2.635v-7.4a2.472,2.472,0,0,1,.847-1.873,3.07,3.07,0,0,1,2.084-.762h11.272a3.069,3.069,0,0,1,2.084.762,2.472,2.472,0,0,1,.847,1.873Zm26,0a2.8,2.8,0,0,1-2.931,2.635H403.1a3.07,3.07,0,0,1-2.084-.762,2.472,2.472,0,0,1-.847-1.873v-7.4a2.472,2.472,0,0,1,.847-1.873,3.07,3.07,0,0,1,2.084-.762h11.272a3.07,3.07,0,0,1,2.084.762,2.472,2.472,0,0,1,.847,1.873Zm26,0a2.472,2.472,0,0,1-.847,1.873,3.07,3.07,0,0,1-2.084.762H429.1a2.8,2.8,0,0,1-2.931-2.635v-7.4a2.472,2.472,0,0,1,.847-1.873,3.069,3.069,0,0,1,2.084-.762h11.272a3.07,3.07,0,0,1,2.084.762,2.472,2.472,0,0,1,.847,1.873Zm26.039,0a2.8,2.8,0,0,1-2.931,2.635H455.143a3.07,3.07,0,0,1-2.084-.762,2.472,2.472,0,0,1-.847-1.873v-7.4a2.472,2.472,0,0,1,.847-1.873,3.07,3.07,0,0,1,2.084-.762h11.272a3.069,3.069,0,0,1,2.084.762,2.472,2.472,0,0,1,.847,1.873Zm26,0a2.472,2.472,0,0,1-.847,1.873,3.07,3.07,0,0,1-2.084.761H481.145a2.8,2.8,0,0,1-2.931-2.635v-7.4a2.472,2.472,0,0,1,.847-1.873,3.069,3.069,0,0,1,2.084-.762h11.272a3.07,3.07,0,0,1,2.084.762,2.472,2.472,0,0,1,.847,1.873Zm0-123.559a2.472,2.472,0,0,1-.847,1.873,3.07,3.07,0,0,1-2.084.762H481.145a2.8,2.8,0,0,1-2.931-2.635v-7.431a2.8,2.8,0,0,1,2.931-2.635h11.272a3.07,3.07,0,0,1,2.084.762,2.472,2.472,0,0,1,.847,1.873ZM521.387,262.1a2.8,2.8,0,0,1-2.931,2.635H507.184a3.07,3.07,0,0,1-2.084-.762,2.472,2.472,0,0,1-.847-1.873v-7.4a2.472,2.472,0,0,1,.847-1.873,3.07,3.07,0,0,1,2.084-.762h11.272a3.07,3.07,0,0,1,2.084.762,2.472,2.472,0,0,1,.847,1.873Zm26,0a2.472,2.472,0,0,1-.847,1.873,3.069,3.069,0,0,1-2.084.762H533.186a2.8,2.8,0,0,1-2.931-2.635v-7.4a2.472,2.472,0,0,1,.847-1.873,3.07,3.07,0,0,1,2.084-.762h11.272a3.069,3.069,0,0,1,2.084.762,2.472,2.472,0,0,1,.847,1.873Zm26.039,0a2.8,2.8,0,0,1-2.931,2.635H559.225a2.8,2.8,0,0,1-2.931-2.635v-7.4a2.472,2.472,0,0,1,.847-1.873,3.069,3.069,0,0,1,2.084-.762H570.5a3.069,3.069,0,0,1,2.084.762,2.472,2.472,0,0,1,.847,1.873Zm26,0a2.472,2.472,0,0,1-.847,1.873,3.07,3.07,0,0,1-2.084.762H585.226A2.8,2.8,0,0,1,582.3,262.1v-7.4a2.472,2.472,0,0,1,.847-1.873,3.069,3.069,0,0,1,2.084-.762H596.5a3.07,3.07,0,0,1,2.084.762,2.472,2.472,0,0,1,.847,1.873Zm26.039,0a2.8,2.8,0,0,1-2.931,2.635H611.265a2.8,2.8,0,0,1-2.931-2.635v-7.4a2.472,2.472,0,0,1,.847-1.873,3.07,3.07,0,0,1,2.084-.762h11.272a3.07,3.07,0,0,1,2.084.762,2.472,2.472,0,0,1,.847,1.873Zm26,0a2.8,2.8,0,0,1-2.931,2.635H637.267a2.8,2.8,0,0,1-2.931-2.635v-7.4a2.472,2.472,0,0,1,.847-1.873,3.069,3.069,0,0,1,2.084-.762h11.272a3.07,3.07,0,0,1,2.084.762,2.472,2.472,0,0,1,.847,1.873Zm26.039,0a2.8,2.8,0,0,1-2.931,2.635H663.306a2.8,2.8,0,0,1-2.931-2.635v-7.4a2.472,2.472,0,0,1,.847-1.873,3.07,3.07,0,0,1,2.084-.762h11.272a3.069,3.069,0,0,1,2.084.762,2.471,2.471,0,0,1,.847,1.873Zm26,0a2.8,2.8,0,0,1-2.931,2.635H689.308a2.8,2.8,0,0,1-2.931-2.635v-7.4a2.472,2.472,0,0,1,.847-1.873,3.07,3.07,0,0,1,2.084-.762H700.58a3.07,3.07,0,0,1,2.084.762,2.471,2.471,0,0,1,.847,1.873Zm26.039,0a2.8,2.8,0,0,1-2.931,2.635H715.347a2.8,2.8,0,0,1-2.931-2.635v-7.4a2.472,2.472,0,0,1,.847-1.873,3.07,3.07,0,0,1,2.084-.762h11.272a3.07,3.07,0,0,1,2.084.762,2.472,2.472,0,0,1,.847,1.873Zm26,0a2.8,2.8,0,0,1-2.931,2.635H741.348a3.07,3.07,0,0,1-2.084-.762,2.472,2.472,0,0,1-.847-1.873v-7.4a2.471,2.471,0,0,1,.847-1.873,3.069,3.069,0,0,1,2.084-.762h11.272a3.07,3.07,0,0,1,2.084.762,2.472,2.472,0,0,1,.847,1.873Zm26.039,0a2.509,2.509,0,0,1-.872,1.875,3.112,3.112,0,0,1-2.1.759H767.35a2.8,2.8,0,0,1-2.931-2.635v-7.4a2.472,2.472,0,0,1,.847-1.873,3.069,3.069,0,0,1,2.084-.762h11.272a3.111,3.111,0,0,1,2.1.76,2.509,2.509,0,0,1,.872,1.875Zm26,0a2.8,2.8,0,0,1-2.931,2.635H793.389a3.071,3.071,0,0,1-2.084-.762,2.472,2.472,0,0,1-.847-1.873v-7.4a2.471,2.471,0,0,1,.847-1.873,3.07,3.07,0,0,1,2.084-.762h11.272a3.069,3.069,0,0,1,2.084.762,2.472,2.472,0,0,1,.847,1.873Zm26,0a2.473,2.473,0,0,1-.847,1.873,3.069,3.069,0,0,1-2.084.762H819.391a2.8,2.8,0,0,1-2.931-2.635v-7.4a2.472,2.472,0,0,1,.847-1.873,3.069,3.069,0,0,1,2.084-.762h11.272a3.069,3.069,0,0,1,2.083.762,2.472,2.472,0,0,1,.847,1.873Zm0-123.559a2.473,2.473,0,0,1-.847,1.873,3.07,3.07,0,0,1-2.084.762H819.391a2.8,2.8,0,0,1-2.931-2.635v-7.431a2.8,2.8,0,0,1,2.931-2.635h11.272a3.069,3.069,0,0,1,2.083.762,2.472,2.472,0,0,1,.847,1.873ZM859.633,262.1a2.8,2.8,0,0,1-2.931,2.635H845.43a3.069,3.069,0,0,1-2.083-.762,2.472,2.472,0,0,1-.847-1.873v-7.4a2.472,2.472,0,0,1,.847-1.873,3.069,3.069,0,0,1,2.083-.762H856.7a3.069,3.069,0,0,1,2.084.762,2.471,2.471,0,0,1,.847,1.873Zm26,0a2.473,2.473,0,0,1-.847,1.873,3.07,3.07,0,0,1-2.084.762H871.431A2.8,2.8,0,0,1,868.5,262.1v-7.4a2.472,2.472,0,0,1,.847-1.873,3.069,3.069,0,0,1,2.084-.762H882.7a3.07,3.07,0,0,1,2.084.762,2.472,2.472,0,0,1,.847,1.873Zm26.039,0a2.8,2.8,0,0,1-2.931,2.635H897.471a3.112,3.112,0,0,1-2.1-.76,2.509,2.509,0,0,1-.872-1.875v-7.4a2.509,2.509,0,0,1,.872-1.875,3.111,3.111,0,0,1,2.1-.759h11.272a3.07,3.07,0,0,1,2.084.762,2.471,2.471,0,0,1,.847,1.873Zm26,0a2.472,2.472,0,0,1-.847,1.873,3.069,3.069,0,0,1-2.084.761H923.472a2.8,2.8,0,0,1-2.931-2.635v-7.4a2.472,2.472,0,0,1,.847-1.873,3.07,3.07,0,0,1,2.084-.762h11.272a3.069,3.069,0,0,1,2.084.762,2.472,2.472,0,0,1,.847,1.873Zm26.039,0a2.8,2.8,0,0,1-2.931,2.635H949.511a2.8,2.8,0,0,1-2.931-2.635v-7.4a2.472,2.472,0,0,1,.847-1.873,3.069,3.069,0,0,1,2.084-.762h11.272a3.069,3.069,0,0,1,2.084.762,2.472,2.472,0,0,1,.847,1.873Zm26,0a2.8,2.8,0,0,1-2.931,2.635H975.513a2.8,2.8,0,0,1-2.931-2.635v-7.4a2.472,2.472,0,0,1,.847-1.873,3.069,3.069,0,0,1,2.084-.762h11.272a3.069,3.069,0,0,1,2.084.762,2.472,2.472,0,0,1,.847,1.873Zm26.039,0a2.8,2.8,0,0,1-2.931,2.635h-11.272a2.8,2.8,0,0,1-2.931-2.635v-7.4a2.472,2.472,0,0,1,.847-1.873,3.069,3.069,0,0,1,2.084-.762h11.272a3.07,3.07,0,0,1,2.083.762,2.472,2.472,0,0,1,.847,1.873Zm26,0a2.8,2.8,0,0,1-2.931,2.635h-11.272a2.8,2.8,0,0,1-2.931-2.635v-7.4a2.472,2.472,0,0,1,.847-1.873,3.069,3.069,0,0,1,2.084-.762h11.272a3.069,3.069,0,0,1,2.083.762,2.472,2.472,0,0,1,.847,1.873Zm26.039,0a2.8,2.8,0,0,1-2.931,2.635h-11.272a2.8,2.8,0,0,1-2.931-2.635v-7.4a2.471,2.471,0,0,1,.847-1.873,3.07,3.07,0,0,1,2.084-.762h11.272a3.07,3.07,0,0,1,2.084.762,2.472,2.472,0,0,1,.847,1.873Zm26,0a2.8,2.8,0,0,1-2.931,2.635h-11.272a3.071,3.071,0,0,1-2.084-.762,2.471,2.471,0,0,1-.847-1.873v-7.4a2.471,2.471,0,0,1,.847-1.873,3.07,3.07,0,0,1,2.084-.762h11.272a3.07,3.07,0,0,1,2.084.762,2.471,2.471,0,0,1,.847,1.873Zm26.039,0a2.8,2.8,0,0,1-2.931,2.635h-11.272a2.8,2.8,0,0,1-2.931-2.635v-7.4a2.471,2.471,0,0,1,.847-1.873,3.07,3.07,0,0,1,2.084-.762h11.272a3.069,3.069,0,0,1,2.083.762,2.472,2.472,0,0,1,.847,1.873Zm26,0a2.8,2.8,0,0,1-2.931,2.635h-11.272a3.07,3.07,0,0,1-2.084-.762,2.471,2.471,0,0,1-.847-1.873v-7.4a2.471,2.471,0,0,1,.847-1.873,3.07,3.07,0,0,1,2.084-.762h11.272a3.07,3.07,0,0,1,2.084.762,2.472,2.472,0,0,1,.847,1.873Zm26,0a2.471,2.471,0,0,1-.847,1.873,3.07,3.07,0,0,1-2.083.761h-11.272a2.8,2.8,0,0,1-2.931-2.635v-7.4a2.471,2.471,0,0,1,.847-1.873,3.069,3.069,0,0,1,2.084-.762h11.272a3.069,3.069,0,0,1,2.083.762,2.471,2.471,0,0,1,.847,1.873Zm26.039,0a2.8,2.8,0,0,1-2.931,2.635h-11.272a3.069,3.069,0,0,1-2.084-.762,2.472,2.472,0,0,1-.847-1.873v-7.4a2.472,2.472,0,0,1,.847-1.873,3.069,3.069,0,0,1,2.084-.762h11.272a3.069,3.069,0,0,1,2.083.762,2.472,2.472,0,0,1,.847,1.873Zm26,0a2.473,2.473,0,0,1-.847,1.873,3.07,3.07,0,0,1-2.084.762h-11.272a2.8,2.8,0,0,1-2.931-2.635v-7.4a2.472,2.472,0,0,1,.847-1.873,3.07,3.07,0,0,1,2.084-.762h11.272a3.07,3.07,0,0,1,2.084.762,2.472,2.472,0,0,1,.847,1.873Zm26.039,0a2.8,2.8,0,0,1-2.931,2.635h-11.272a3.071,3.071,0,0,1-2.084-.762,2.473,2.473,0,0,1-.847-1.873v-7.4a2.472,2.472,0,0,1,.847-1.873,3.07,3.07,0,0,1,2.084-.762h11.273a3.07,3.07,0,0,1,2.084.762,2.471,2.471,0,0,1,.847,1.873Zm26,0a2.472,2.472,0,0,1-.847,1.873,3.069,3.069,0,0,1-2.084.762h-11.272a2.8,2.8,0,0,1-2.931-2.635v-7.4a2.472,2.472,0,0,1,.847-1.873,3.07,3.07,0,0,1,2.084-.762h11.272a3.069,3.069,0,0,1,2.084.762,2.472,2.472,0,0,1,.847,1.873Zm26.039,0a2.8,2.8,0,0,1-2.931,2.635h-11.272a2.8,2.8,0,0,1-2.931-2.635v-7.4a2.472,2.472,0,0,1,.847-1.873,3.069,3.069,0,0,1,2.084-.762h11.272a3.07,3.07,0,0,1,2.084.762,2.472,2.472,0,0,1,.847,1.873Zm26,0a2.473,2.473,0,0,1-.847,1.873,3.07,3.07,0,0,1-2.084.761h-11.272a2.8,2.8,0,0,1-2.931-2.635v-7.4a2.472,2.472,0,0,1,.847-1.873,3.07,3.07,0,0,1,2.084-.762h11.272a3.07,3.07,0,0,1,2.084.762,2.472,2.472,0,0,1,.847,1.873Zm0-123.559a2.473,2.473,0,0,1-.847,1.873,3.07,3.07,0,0,1-2.084.762h-11.272a2.8,2.8,0,0,1-2.931-2.635v-7.431a2.8,2.8,0,0,1,2.931-2.635h11.272a3.07,3.07,0,0,1,2.084.762,2.472,2.472,0,0,1,.847,1.873ZM1354,262.1a2.8,2.8,0,0,1-2.931,2.635H1339.8a2.8,2.8,0,0,1-2.931-2.635v-7.4a2.471,2.471,0,0,1,.847-1.873,3.07,3.07,0,0,1,2.084-.762h11.272a3.069,3.069,0,0,1,2.083.762A2.472,2.472,0,0,1,1354,254.7Zm26,0a2.8,2.8,0,0,1-2.931,2.635H1365.8a2.8,2.8,0,0,1-2.931-2.635v-7.4a2.472,2.472,0,0,1,.847-1.873,3.07,3.07,0,0,1,2.084-.762h11.272a3.07,3.07,0,0,1,2.084.762A2.472,2.472,0,0,1,1380,254.7Zm26.039,0a2.8,2.8,0,0,1-2.931,2.635h-11.272a2.8,2.8,0,0,1-2.931-2.635v-7.4a2.472,2.472,0,0,1,.847-1.873,3.07,3.07,0,0,1,2.084-.762h11.272a3.069,3.069,0,0,1,2.084.762,2.472,2.472,0,0,1,.847,1.873Zm26,0a2.8,2.8,0,0,1-2.931,2.635H1417.84a2.8,2.8,0,0,1-2.931-2.635v-7.4a2.47,2.47,0,0,1,.847-1.873,3.069,3.069,0,0,1,2.084-.762h11.272a3.069,3.069,0,0,1,2.083.762,2.471,2.471,0,0,1,.847,1.873Zm26.039,0a2.8,2.8,0,0,1-2.931,2.635h-11.272a2.8,2.8,0,0,1-2.931-2.635v-7.4a2.471,2.471,0,0,1,.847-1.873,3.069,3.069,0,0,1,2.083-.762h11.273a3.069,3.069,0,0,1,2.084.762,2.471,2.471,0,0,1,.847,1.873Zm26,0a2.8,2.8,0,0,1-2.931,2.635h-11.272a3.07,3.07,0,0,1-2.084-.762,2.472,2.472,0,0,1-.847-1.873v-7.4a2.472,2.472,0,0,1,.847-1.873,3.069,3.069,0,0,1,2.083-.762h11.273a3.07,3.07,0,0,1,2.084.762,2.471,2.471,0,0,1,.847,1.873Zm26,0a2.472,2.472,0,0,1-.847,1.873,3.07,3.07,0,0,1-2.084.761h-11.272a2.8,2.8,0,0,1-2.931-2.635v-7.4a2.471,2.471,0,0,1,.847-1.873,3.069,3.069,0,0,1,2.084-.762h11.272a3.07,3.07,0,0,1,2.084.762,2.471,2.471,0,0,1,.847,1.873Zm26.039,0a2.8,2.8,0,0,1-2.931,2.635h-11.272a3.07,3.07,0,0,1-2.084-.762,2.473,2.473,0,0,1-.847-1.873v-7.4a2.473,2.473,0,0,1,.847-1.873,3.07,3.07,0,0,1,2.084-.762h11.273a3.07,3.07,0,0,1,2.084.762,2.472,2.472,0,0,1,.847,1.873Zm26,0a2.472,2.472,0,0,1-.847,1.873,3.07,3.07,0,0,1-2.083.762h-11.272a2.8,2.8,0,0,1-2.931-2.635v-7.4a2.472,2.472,0,0,1,.847-1.873,3.07,3.07,0,0,1,2.084-.761H1559.2a3.07,3.07,0,0,1,2.083.762,2.472,2.472,0,0,1,.847,1.873Zm26.039,0a2.794,2.794,0,0,1-2.931,2.635h-11.272a3.07,3.07,0,0,1-2.084-.762,2.472,2.472,0,0,1-.847-1.873v-7.4a2.472,2.472,0,0,1,.847-1.873,3.07,3.07,0,0,1,2.084-.761h11.272a3.07,3.07,0,0,1,2.084.762,2.471,2.471,0,0,1,.847,1.873Zm26,0a2.473,2.473,0,0,1-.847,1.873,3.069,3.069,0,0,1-2.084.762h-11.272a2.8,2.8,0,0,1-2.931-2.635v-7.4a2.472,2.472,0,0,1,.847-1.873,3.069,3.069,0,0,1,2.084-.762h11.272a3.069,3.069,0,0,1,2.083.762,2.473,2.473,0,0,1,.847,1.873Zm26.039,0a2.8,2.8,0,0,1-2.931,2.635H1626a3.112,3.112,0,0,1-2.1-.76,2.509,2.509,0,0,1-.872-1.875v-7.4a2.51,2.51,0,0,1,.872-1.875,3.111,3.111,0,0,1,2.1-.759h11.272a3.07,3.07,0,0,1,2.083.762,2.472,2.472,0,0,1,.847,1.873Zm26,0a2.471,2.471,0,0,1-.847,1.873,3.07,3.07,0,0,1-2.084.761h-11.272a2.8,2.8,0,0,1-2.931-2.635v-7.4a2.473,2.473,0,0,1,.847-1.873,3.07,3.07,0,0,1,2.083-.762h11.272a3.069,3.069,0,0,1,2.084.761,2.471,2.471,0,0,1,.847,1.873Zm26.039,0a2.8,2.8,0,0,1-2.931,2.635h-11.272a2.8,2.8,0,0,1-2.931-2.635v-7.4a2.473,2.473,0,0,1,.847-1.873,3.07,3.07,0,0,1,2.084-.762h11.272a3.069,3.069,0,0,1,2.084.761,2.472,2.472,0,0,1,.847,1.873Zm26,0a2.8,2.8,0,0,1-2.931,2.635h-11.272a2.8,2.8,0,0,1-2.931-2.635v-7.4a2.472,2.472,0,0,1,.847-1.873,3.069,3.069,0,0,1,2.084-.761h11.272a3.069,3.069,0,0,1,2.083.762,2.47,2.47,0,0,1,.847,1.873Zm26.039,0a2.8,2.8,0,0,1-2.931,2.635h-11.272a2.8,2.8,0,0,1-2.931-2.635v-7.4a2.473,2.473,0,0,1,.847-1.873,3.069,3.069,0,0,1,2.084-.761h11.272a3.069,3.069,0,0,1,2.083.762,2.471,2.471,0,0,1,.847,1.873Zm26,0a2.8,2.8,0,0,1-2.931,2.635h-11.272a3.07,3.07,0,0,1-2.084-.762,2.472,2.472,0,0,1-.847-1.873v-7.4a2.472,2.472,0,0,1,.847-1.873,3.07,3.07,0,0,1,2.084-.762h11.272a3.069,3.069,0,0,1,2.083.762,2.471,2.471,0,0,1,.847,1.873Zm26.039,0a2.8,2.8,0,0,1-2.931,2.635h-11.272a2.8,2.8,0,0,1-2.931-2.635v-7.4a2.471,2.471,0,0,1,.847-1.873,3.07,3.07,0,0,1,2.084-.762H1793.4a3.069,3.069,0,0,1,2.084.762,2.472,2.472,0,0,1,.847,1.873Zm26,0a2.8,2.8,0,0,1-2.931,2.635h-11.272a3.071,3.071,0,0,1-2.084-.762,2.472,2.472,0,0,1-.847-1.873v-7.4a2.472,2.472,0,0,1,.847-1.873,3.07,3.07,0,0,1,2.083-.762H1819.4a3.07,3.07,0,0,1,2.084.761,2.472,2.472,0,0,1,.847,1.873Zm0-123.559a2.8,2.8,0,0,1-2.931,2.635h-11.272a3.071,3.071,0,0,1-2.084-.762,2.472,2.472,0,0,1-.847-1.873v-7.431a2.472,2.472,0,0,1,.847-1.873,3.071,3.071,0,0,1,2.083-.762H1819.4a2.8,2.8,0,0,1,2.931,2.635ZM1848.369,262.1a2.51,2.51,0,0,1-.872,1.875,3.112,3.112,0,0,1-2.1.759h-11.272a2.8,2.8,0,0,1-2.931-2.635v-7.4a2.474,2.474,0,0,1,.847-1.873,3.07,3.07,0,0,1,2.084-.762H1845.4a3.111,3.111,0,0,1,2.1.76,2.51,2.51,0,0,1,.872,1.875Zm26,0a2.8,2.8,0,0,1-2.931,2.635h-11.272a3.07,3.07,0,0,1-2.084-.762,2.472,2.472,0,0,1-.847-1.873v-7.4a2.471,2.471,0,0,1,.847-1.873,3.07,3.07,0,0,1,2.084-.761h11.272a3.069,3.069,0,0,1,2.083.762,2.472,2.472,0,0,1,.847,1.873Z" transform="translate(21.79 -122.43)" fill="#606060"/>
</svg>
