<svg xmlns="http://www.w3.org/2000/svg" width="1887.049" height="1189.646" viewBox="0 0 1887.049 1189.646">
  <path id="Union_1" data-name="Union 1" d="M-1105.388,1727.48l5.316-507.781-15.766-.165L-1294,1663.491l-17-.184,178.186-443.951a2.861,2.861,0,0,1-2.83-2.89l.192-18.351-63.919,14.546,1.077,4.733a1.139,1.139,0,0,1-.859,1.364l-45.853,10.435a1.14,1.14,0,0,1-1.365-.859l-4.706-20.683a1.139,1.139,0,0,1,.859-1.364l45.853-10.435a1.14,1.14,0,0,1,1.364.859l.995,4.37,66.681-15.174.1-9.484a2.859,2.859,0,0,1,2.89-2.83l9.674.1.115-11-114.612-1.2a5.73,5.73,0,0,1-5.67-5.79l.373-35.64-13.677-.143a2.6,2.6,0,0,1-2.572-2.627l.173-16.549-22.566-.226a1.879,1.879,0,0,1-1.861-1.9l.358-35.846a1.88,1.88,0,0,1,1.9-1.861l22.585.226.168-16.084a2.6,2.6,0,0,1,2.627-2.572l13.678.143.284-27.079-25.194-3.018-.409,3.416a.81.81,0,0,1-.9.707l-33.1-3.964a.81.81,0,0,1-.708-.9l1.79-14.942a.809.809,0,0,1,.9-.707l33.1,3.965a.809.809,0,0,1,.707.9l-.381,3.177,24.282,2.909.176-16.714a85.1,85.1,0,0,1-34.16-69.125,85.224,85.224,0,0,1,86.1-84.336,85.224,85.224,0,0,1,84.339,86.109,84.834,84.834,0,0,1-14.077,46.053l31.781.333a94.279,94.279,0,0,1-3.081-92.781,94.334,94.334,0,0,1,127.283-39.973,94.334,94.334,0,0,1,39.975,127.265,94.375,94.375,0,0,1-15.325,21.456l-.507,48.334,11.85.118L-353,538H576.049V1616.028H-353l-572.392-529.37-13.929-.139-.757,72.355a5.73,5.73,0,0,1-5.79,5.67l-114.617-1.2-.115,11,9.681.1a2.861,2.861,0,0,1,2.831,2.89l-.419,40.043a2.863,2.863,0,0,1-1.588,2.533l168.9,447.968-17-.184-168.791-447.649-17.234-.181-5.316,507.781Zm-136.171-766.362a6.9,6.9,0,0,0-3.4,4.981,6.894,6.894,0,0,0,1.816,5.751q1.085,1.158,2.219,2.265l.006-.585a5.729,5.729,0,0,1,5.79-5.67l7.817.082a59.014,59.014,0,0,1-9.382-9.594Zm306.048-34.332-6.068.256a65.072,65.072,0,0,1-22.341,42.734l.593.931,19.2.2a80,80,0,0,0,16.358-34.977,7.6,7.6,0,0,0-1.638-6.464,7.6,7.6,0,0,0-5.8-2.687Q-935.356,926.779-935.511,926.786ZM-1076.9,932.8a7.6,7.6,0,0,0-5.853,3.193,7.6,7.6,0,0,0-1.08,6.579,81.113,81.113,0,0,0,13.719,27.019l21.047.221a65.525,65.525,0,0,1-8.513-8.861,64.979,64.979,0,0,1-13.056-28.42Zm-76.835,35.915,17.667.185a6.879,6.879,0,0,0,0-1.732,6.9,6.9,0,0,0-3.3-5.052l-4.794-2.825A59.034,59.034,0,0,1-1153.735,968.712Zm29.1-21.041a6.9,6.9,0,0,0,4-4.438,72.463,72.463,0,0,0,.442-40.935,6.856,6.856,0,0,0-3.978-4.527,6.857,6.857,0,0,0-6.016.36l-4.832,2.749a59.647,59.647,0,0,1,2.451,7.986,58.742,58.742,0,0,1-2.872,35.683l4.81,2.851.038-.074A6.9,6.9,0,0,0-1124.633,947.671Zm-130.914-51.19a6.9,6.9,0,0,0-4.082,4.453,73.548,73.548,0,0,0-3.135,20.43,72.39,72.39,0,0,0,2.729,20.5,6.894,6.894,0,0,0,3.933,4.67,6.9,6.9,0,0,0,6.1-.282l4.912-2.787a59.373,59.373,0,0,1-2.439-7.957,58.723,58.723,0,0,1,2.871-35.68l-4.865-2.881a6.9,6.9,0,0,0-3.495-.95A6.885,6.885,0,0,0-1255.547,896.481Zm191-32.018a80.764,80.764,0,0,0-20.947,40.159,7.6,7.6,0,0,0,1.66,6.5,7.6,7.6,0,0,0,6.158,2.651l6.252-.264a65.065,65.065,0,0,1,22.218-42.569l-3.394-5.329a7.633,7.633,0,0,0-5.7-3.475c-.244-.023-.486-.035-.728-.035A7.636,7.636,0,0,0-1064.546,864.463Zm104.6-6.5a7.635,7.635,0,0,0-5.4,3.956l-2.887,5.49a65.373,65.373,0,0,1,12.805,12.254A65,65,0,0,1-942.387,908l6.286-.247a7.632,7.632,0,0,0,5.853-3.218,7.633,7.633,0,0,0,1.08-6.591,80.907,80.907,0,0,0-24.339-38.168,7.634,7.634,0,0,0-5.083-1.939A7.632,7.632,0,0,0-959.947,857.962Zm-218.08-5.11a6.9,6.9,0,0,0-2.721,5.378l-.062,5.667a59.213,59.213,0,0,1,37.4,22.121l4.892-2.785a6.9,6.9,0,0,0,3.4-4.981,6.9,6.9,0,0,0-1.816-5.751,73.5,73.5,0,0,0-35.182-20.836,6.891,6.891,0,0,0-1.733-.222A6.9,6.9,0,0,0-1178.027,852.852Zm-28.462-1.555a73.36,73.36,0,0,0-35.587,20.1,6.9,6.9,0,0,0-1.938,5.716,6.9,6.9,0,0,0,3.3,5.053l4.83,2.858a58.749,58.749,0,0,1,32.507-20.313q2.673-.62,5.342-.986l.062-5.641a6.934,6.934,0,0,0-2.614-5.459,6.938,6.938,0,0,0-4.322-1.51A6.921,6.921,0,0,0-1206.489,851.3Zm174.063-7.191a7.6,7.6,0,0,0-4.923,4.684,7.6,7.6,0,0,0,.793,6.748l3.317,5.2a65.389,65.389,0,0,1,48.172-2.1l2.832-5.428A7.637,7.637,0,0,0-982,846.44a7.638,7.638,0,0,0-5.249-4.289,80.9,80.9,0,0,0-19.231-2.319A80.883,80.883,0,0,0-1032.426,844.106Z" transform="translate(1310.999 -538)" fill="#2c2c2c"/>
</svg>
