<svg xmlns="http://www.w3.org/2000/svg" width="368.825" height="71.108" viewBox="0 0 368.825 71.108">
  <g id="Design" transform="translate(-52.09 -695.23)">
    <path id="Path_22" data-name="Path 22" d="M63.155,725.074a1.948,1.948,0,0,0-.107-.776,10.548,10.548,0,0,1,.682-4.639l.762.655c1.671,1.337.267,3.182.642,4.746h-.642Z" transform="translate(3.681 8.23)" fill="#a2b1ce"/>
    <path id="Path_23" data-name="Path 23" d="M65.462,720.784c-.348.882-.7,1.751-1.056,2.674-.468-.922-3.021-1.831,0-2.767Z" transform="translate(3.659 8.576)" fill="#e8ecf3"/>
    <path id="Path_24" data-name="Path 24" d="M63.2,719.64h1.337c.214.668.428,1.337.655,2.032-.735.481,0,.909,0,1.337l-.709.709a1.337,1.337,0,0,0-.668,1.337C62.488,723.423,63.438,721.458,63.2,719.64Z" transform="translate(3.705 8.223)" fill="#a7b5d1"/>
    <path id="Path_25" data-name="Path 25" d="M59.042,730.517V763.35a.856.856,0,0,0,.856.856H72.089a.842.842,0,0,0,.856-.856V729.929H81.8a.869.869,0,0,0,.856-.789l.842-10.053a.856.856,0,0,0-.856-.922H72.945v-7.139a3.035,3.035,0,0,1,3.088-2.981h6.818a.856.856,0,0,0,.856-.856V697.136a.856.856,0,0,0-.856-.856H71.274a12.232,12.232,0,0,0-12.232,12.232v9.706h-6.1a.855.855,0,0,0-.856.855v10.053a.856.856,0,0,0,.856.855h6.1Z" transform="translate(0 0.354)" fill="#fff" fill-rule="evenodd"/>
    <circle id="Ellipse_11" data-name="Ellipse 11" cx="4.171" cy="4.171" r="4.171" transform="translate(252.927 707.957)" fill="#fff"/>
    <path id="Path_26" data-name="Path 26" d="M196,708.75a17.5,17.5,0,1,0,17.5,17.5,17.5,17.5,0,0,0-17.5-17.5Zm0,28.716a11.216,11.216,0,1,1,11.2-11.216A11.216,11.216,0,0,1,196,737.466Z" transform="translate(42.583 4.554)" fill="#fff"/>
    <path id="Path_27" data-name="Path 27" d="M214.545,766.338H186.15a21.39,21.39,0,0,1-21.39-21.39V716.62a21.39,21.39,0,0,1,21.39-21.39h28.395a21.39,21.39,0,0,1,21.39,21.39v28.368A21.39,21.39,0,0,1,214.545,766.338Zm-28.368-64.37a14.705,14.705,0,0,0-14.705,14.705v28.368a14.705,14.705,0,0,0,14.705,14.706h28.368a14.705,14.705,0,0,0,14.705-14.705V716.62a14.705,14.705,0,0,0-14.705-14.705Z" transform="translate(37.954)" fill="#fff"/>
    <path id="Path_28" data-name="Path 28" d="M344.395,709.753a27.526,27.526,0,0,1-6.684,1.912c1.083-.187,2.674-2.139,3.3-2.914a12.5,12.5,0,0,0,2.219-4.011c0-.12.107-.254,0-.348a.428.428,0,0,0-.361,0,33.623,33.623,0,0,1-7.914,3.035.535.535,0,0,1-.548-.147,6.989,6.989,0,0,0-.7-.708,13.986,13.986,0,0,0-3.783-2.326,13.622,13.622,0,0,0-5.882-.949,14.251,14.251,0,0,0-10.16,5.227,13.664,13.664,0,0,0-2.674,5.348,14.585,14.585,0,0,0-.134,5.695c0,.307,0,.348-.281.307-10.882-1.618-19.906-5.508-27.232-13.85-.307-.374-.481-.374-.749,0-3.208,4.8-1.644,12.513,2.353,16.31a21.91,21.91,0,0,0,1.671,1.471,13.942,13.942,0,0,1-5.254-1.471c-.307-.2-.468-.08-.495.281a7.74,7.74,0,0,0,.08,1.551,13.983,13.983,0,0,0,8.609,11.136,8.707,8.707,0,0,0,1.738.535,15.841,15.841,0,0,1-5.147.16c-.374-.08-.521.107-.374.468,2.259,6.19,7.166,8.021,10.829,9.077.481.08.976.08,1.471.2l-.094.08c-1.217,1.858-5.428,3.235-7.393,3.917a26.309,26.309,0,0,1-11.23,1.444c-.6-.093-.722-.08-.9,0s0,.241.174.4a21.8,21.8,0,0,0,2.34,1.337,36.859,36.859,0,0,0,7.513,2.995c13.489,3.73,28.689.989,38.769-9.077,8.021-7.9,10.695-18.8,10.695-29.718,0-.428.508-.655.8-.882a26.339,26.339,0,0,0,5.267-5.494,1.591,1.591,0,0,0,.321-1.056h0C344.636,709.593,344.636,709.593,344.395,709.753Z" transform="translate(76.308 2.709)" fill="#fff"/>
    <path id="Path_29" data-name="Path 29" d="M293.27,744Z" transform="translate(81.244 16.429)" fill="#fff" fill-rule="evenodd"/>
    <path id="Path_30" data-name="Path 30" d="M294.93,744.074c0-.12,1.176,0,0,0C294.93,743.993,295.024,744.074,294.93,744.074Z" transform="translate(81.804 16.435)" fill="#fff" fill-rule="evenodd"/>
    <path id="Path_31" data-name="Path 31" d="M312.481,703.56a.267.267,0,0,1-.281,0Z" transform="translate(87.621 2.806)" fill="#fff" fill-rule="evenodd"/>
  </g>
</svg>
