<svg id="OBJECTS" xmlns="http://www.w3.org/2000/svg" width="38.9" height="38.892" viewBox="0 0 38.9 38.892">
  <path id="Path_3" data-name="Path 3" d="M352.049,197.374a12.476,12.476,0,1,1,0-17.655A12.476,12.476,0,0,1,352.049,197.374Zm-15.038-15.038a8.791,8.791,0,1,0,12.421,0,8.79,8.79,0,0,0-12.421,0Z" transform="translate(-330.756 -176.07)" fill="#f9fbfc"/>
  <rect id="Rectangle_15" data-name="Rectangle 15" width="3.704" height="6.155" transform="translate(18.681 21.268) rotate(-45)" fill="#f9fbfc"/>
  <path id="Path_4" data-name="Path 4" d="M358.584,203.894a2.764,2.764,0,0,1-3.925,0L343.6,192.836a2.783,2.783,0,0,1,3.925-3.925l11.057,11.057a2.764,2.764,0,0,1,0,3.925Z" transform="translate(-320.501 -165.819)" fill="#f9fbfc"/>
</svg>
