<svg xmlns="http://www.w3.org/2000/svg" width="2657.675" height="2657.49" viewBox="0 0 2657.675 2657.49">
  <path id="pattern-01" d="M2235.687,1287.737h-.461l-157.853,315.707-315.246,157.946h0L1604.181,2077.1l-315.338,157.669h0L1130.9,2550.472,918.059,2657.029h6.366l207.4-103.7h0l157.945-315.8,315.522-157.854h0l157.946-315.707L2078.572,1606.3h0L2236.425,1290.6l315.338-157.669h.461l104.8-208.5v-6.366l-106,212.194Zm-39.486-39.394h0l-157.945,315.8L1722.917,1721.81h0l-157.946,315.707L1248.9,2195.74h0l-157.853,315.707L799.692,2657.029h6.366l286-143.092h0l157.854-315.707,315.338-157.669h0L1724.3,1724.3l315.338-157.669h0l157.946-315.8,315.337-157.669h0l144.107-287.107v-6.366l-145.49,290.982Zm157.484-789.175-157.945,315.8L1880.4,932.636h-.462l-157.853,315.8L1406.75,1406.1h-.461l-157.853,315.8L933.1,1879.571h-.461L774.967,2195.74,459.537,2353.5h-.461L307.4,2657.029h3.229L461.29,2355.807l315.338-157.669h0L934.85,1882.062l315.338-157.669h.462l157.853-315.8,315.338-157.669h.461L1882.062,934.85,2197.4,777.181h.461L2355.807,461.29l301.222-150.657V307.4L2354.054,458.891Zm39.487,39.025L2235.226,814.361,1919.888,972.03h0l-157.761,315.984-315.8,157.669h-.461l-157.853,316.445L972.676,1918.966h-.461L814.361,2235.318,499.023,2392.895h-.461L366.633,2657.029h3.229l130.822-261.736,315.338-157.669h0l157.853-315.707,315.337-157.669h.461l158.776-315.8,315.338-157.669h.461l157.853-315.8L2237.44,817.313h0l157.946-315.8,261.644-131.652v-3.229l-263.488,131.56Zm197.34,1144.645-157.854,315.8L2117.32,2116.675h-.461l-157.854,315.8-315.338,157.668h0l-33.213,66.518h3.137l32.2-64.581,315.338-157.669h0l157.854-315.8,315.338-157.669h0l158.13-315.615,64.58-32.2v-3.136l-66.149,33.028ZM2630,1682.324l-157.484,316.168-315.338,157.669h0L1998.4,2472.513l-315.246,156.839h-.461l-13.562,27.677h3.229l12.455-24.91,315.338-157.668h0l158.683-315.615,315.338-157.669h0l157.945-315.8,24.91-12.455v-3.229l-26.663,13.377ZM2314.66,1366.34h0l-157.853,315.8-315.338,157.669h-.461l-157.854,315.8-315.337,157.669h-.462l-157.853,315.8-54.616,27.954h6.366l49.45-24.725h.461l157.853-315.8,315.338-157.669h.462l157.853-315.8,315.337-157.669h.461l157.854-315.8L2631.658,1211.9h.461l24.91-49.912v-6.366L2630,1209.779Zm-39.486-39.486h-.461l-157.853,315.707-315.338,158.314h-.461l-157.853,315.8-315.338,157.668h0l-157.946,315.8-133.4,66.887h6l129.161-64.58h0l157.946-315.8,315.245-157.669h.461l157.853-315.8,315.338-157.669h.462l157.853-315.707,315.614-158.13h0l64.58-129.161v-6.366l-66.518,133.036Zm275.851-670.715L2393.171,972.214l-315.338,157.669h-.461L1919.519,1445.59l-315.338,157.669h0l-157.853,315.8L1130.99,2076.727h-.461L972.214,2393.171,656.877,2550.84h0l-53.417,106.189h3.229l51.941-103.882,315.338-157.669h0l157.853-315.8,315.338-157.669h0l157.853-315.8L1921.18,1448.45h0l157.853-315.8,315.338-157.669h.46l157.854-315.707,104.344-52.587v-3.229l-105.543,52.772ZM2630,735.019l-157.484,316.168-315.8,157.392h0l-157.945,315.8-315.245,157.669h-.462l-157.853,315.8L1209.5,2156.161h0l-158.315,316.353L735.849,2629.352h-.461l-13.47,27.677h3.137l12.455-24.91,315.338-157.668h0l158.315-315.615L1526.5,2001.167h0l157.853-315.8L1999.691,1527.7h0l159.145-316.537,315.338-157.669h0L2632.119,737.51l24.91-12.455v-3.137L2630.366,735.2Zm-39.486-39.394-157.854,315.707L2117.32,1169.37h-.461l-157.854,315.984-315.338,157.669h0l-158.315,315.984-315.338,157.669h0l-157.853,315.8-315.8,157.853h0l-33.674,66.7h3.137l32.2-64.58,315.338-157.669h0l158.315-315.8,315.338-157.669h0l157.854-315.8L1960.2,1487.844h0l158.776-316.168,315.338-157.669h0l158.13-315.983,64.58-32.2v-3.137l-66.149,33.028ZM2432.658,538.048l-157.945,315.8-315.338,157.669h0l-157.946,315.8-316.076,158.038h0L1327.5,1801.06l-315.338,157.669h0L853.848,2274.713,538.51,2432.381h0L425.863,2657.029H429l110.71-222.249,315.338-157.669h0L1012.9,1961.4l315.338-157.669h.462l157.853-315.707L1801.89,1330.36h0l157.946-315.8,316.629-158.407h0L2434.688,540.17l222.342-110.71v-3.137l-224,111.54Zm-118-118.644h0L2156.345,735.388,1841.008,893.057h-.461l-157.853,315.707-315.338,157.669h-.461l-157.853,315.8L893.7,1840.362h-.461L735.388,2156.345,420.05,2314.014h0L261.736,2630l-54.063,27.031h6.366l49.45-24.725h0l157.946-315.8,315.707-157.669h0l157.853-315.8,315.338-157.669h.461l157.854-315.8L1683.985,1211.9h.461L1842.3,896.194l315.707-158.13h.461l157.854-315.707,315.338-157.669h.461l24.91-49.819V208.5L2630,262.566Zm157.854,158.13L2314.2,893.334,1998.861,1051h0l-158.315,315.891-315.338,157.669h0l-158.315,315.984-315.153,157.669h0L893.242,2314.2,578,2471.868h0l-92.9,185.161h3.137l91.428-182.855L894.9,2316.505h0L1052.848,2000.8l315.338-157.669h0l157.945-315.707,315.338-157.669h0l157.853-315.707L2315.675,895.64h0l157.854-315.8,183.5-91.612v-3.137L2472.513,577.35Zm78.973,1026.185-158.315,315.8-315.338,157.669h-.461l-157.854,315.983L1604.181,2550.84h0l-53.417,106.189h3.137l51.941-103.882,315.338-157.669h0l158.315-315.983,315.337-157.669h.461l157.854-315.8,103.882-52.126v-3.137l-105.543,52.771Zm39.025-1381.379L2275.173,380.011h-.461L2116.859,695.994,1801.521,853.571h-.461l-157.853,315.707-315.338,157.669h0l-157.946,315.707L854.216,1800.875h0L695.9,2116.859,380.564,2274.528h0L222.342,2590.511,89.213,2657.029h6.366L224,2592.449h0l157.853-315.8,315.8-157.485h0l157.946-315.8,316.076-157.853h0l157.946-315.707,315.245-158.13h.461l157.853-315.707L2118.52,698.3h.462l157.853-315.707,315.614-157.946h0l64.58-129.161V89.213Zm-78.973,394.679L2353.685,932.728,2038.348,1090.4h-.461L1880.033,1406.1,1564.7,1564.049h0l-157.854,315.707L1091.5,2037.425h0l-158.776,316.26L617.39,2511.354h0l-73.068,145.675h3.229l71.684-143.369,315.338-157.669h0l157.946-315.8,315.615-158.13h0l157.853-315.707,316.076-157.577h0l157.854-315.707L2355.253,935.4h0L2513.107,619.7l143.922-72.238v-3.137L2512,616.929Zm-78.88,1815.637L2320.38,2657.029h3.229l110.709-222.249,222.71-111.171v-3.229l-224,112Zm39.855,39.855-92.258,184.977h3.229l91.335-182.855,182.855-91.335v-3.229l-184.516,92.258Zm-118.367-118.367-152.134,302.882h2.952l150.657-301.222,301.406-150.842v-3.137L2354.054,2353.5ZM2512,2512l-73.161,145.029h3.137l71.684-143.369,143.369-71.684v-3.137L2512,2511.354Zm-196.879-197.525h0l-157.853,315.8-55.078,26.755h6.366l49.45-24.725h.461l157.854-315.8,315.338-157.669h.461l24.91-49.912v-6.366L2630,2156.714Zm315.338,315.984-14.023,26.57h3.137l12.546-24.91,24.91-12.546v-3.137l-26.663,12.916Zm-39.486-39.486-33.766,66.057h3.229l32.2-64.58,64.581-32.2v-3.229l-66.149,33.12ZM2512,1564.787l-157.853,315.707-315.338,157.669h-.461l-157.853,315.8-315.8,157.392h0l-73.161,145.675h3.045l71.592-143.369,315.891-157.669h0l157.854-315.8,315.43-158.13h0L2513.2,1566.356l143.83-71.777v-3.229L2512,1563.865Zm39.487,987.16-53.418,105.082h3.137l51.942-103.882,103.882-51.942v-3.137l-105.543,52.772Zm-275.851-276.774h-.462l-157.853,315.8-133.774,66.057h6.366l128.331-64.58h.462l157.853-315.8,315.891-157.485h0L2657.029,1990v-6.458l-66.518,133.036Zm118-828.661-158.407,315.615-315.338,156.839h0l-157.761,316.353L1446.79,2392.895h-.461l-132.39,264.134h3.137l131.375-261.736,315.338-157.669h.461L1922.1,1921.918l315.338-157.669h0l157.854-315.8,261.736-131.375v-3.137l-263.488,131.744Zm78.881,78.973L2314.2,1840.546l-315.337,157.669h0L1840.546,2314.2l-315.338,157.669h0l-92.258,184.977h3.229l91.428-182.855,315.338-157.669h0L2000.8,2000.614l314.876-157.668h0l157.854-315.707,183.5-91.7V1432.3l-184.516,92.258Zm-39.855-40.132L2274.713,1801.06l-315.338,157.669h0l-157.946,315.706-316.076,157.946h0l-112.186,224.648h3.137l110.709-222.249,315.338-157.669h0L1960.3,1961.4l315.338-157.669h0l157.853-315.707,222.342-110.709v-3.137l-222.8,111.171Zm-78.973-78.973-157.945,315.8L1880.4,1879.848h-.462L1722.179,2195.74,1406.841,2353.5h-.461l-151.672,303.528h3.229L1408.5,2355.807l315.338-157.669h.461l157.761-316.076L2197.4,1724.394h.461l157.854-315.8,301.314-150.657v-3.229L2354.054,1406.2Zm-118,828.661h-.461l-157.853,315.707-212.194,106h6.366l207.4-103.7h0l157.853-315.8,315.338-157.668h.461l104.436-207.858v-6.366l-106,212.193Zm-39.486-39.3h0l-157.945,315.707L1747,2657.029h6.366l286-143.092h0l157.946-315.707,315.337-157.669h0l144.383-287.2V1747l-145.49,290.89Zm196.971,197.432-131.929,263.858h3.137l130.914-261.736,261.736-130.914v-3.137l-263.488,131.652ZM184.977,1132.19,500.315,974.521h0L658.63,658.63,973.967,500.961h0l157.853-315.707L1447.527,27.677h0L1461.551,0h-3.229l-12.455,25L1130.529,182.578h-.461L972.214,498.193,656.877,656.231h0L498.193,972.214,183.224,1129.883h0L24.91,1445.867,0,1458.322v3.229l27.032-13.1ZM106,1526.962l157.853-315.8L579.2,1053.494h0L737.51,737.51l315.338-157.669h0l158.315-315.984L1526.5,106.189h0L1579.918,0h-3.137L1524.84,103.882,1209.5,261.551h0L1051.187,577.535,735.849,735.2h-.461L577.535,1051.187,262.2,1208.579h-.461L103.882,1524.84,0,1576.781v3.137l105.543-52.772Zm275.851,276.774h0l157.853-315.707L855.047,1330.36h0l157.853-315.8,316.26-158.407h.461l157.853-315.8,315.338-157.669h0L1961.128,66.518,2094.256,0h-6.366L1959.375,64.581h0L1801.06,380.2,1485.353,537.864h0L1327.5,853.848l-315.338,157.669h0L853.848,1327.5,538.51,1485.353h0L380.2,1801.06,64.581,1958.729h0L0,2087.89v6.366L66.518,1961.22Zm-39.486-39.487h0l158.315-315.8,315.338-157.669h0l157.853-315.8,315.337-157.669h.461L1448.45,500.684l315.338-157.669h.461L1921.641,27.032,1975.8,0h-6.366l-49.542,24.725h0L1762.127,340.709l-315.8,157.484h-.461L1288.014,814.361,972.676,972.03h-.461L814.361,1288.014,499.023,1445.682h-.461L340.709,1762.127,25.371,1918.966h0L0,1969.431v6.366l27.032-54.155ZM81.187,0H74.821L25.371,24.725h0L0,74.821v6.366L27.032,27.032ZM224.464,1645.328l157.853-315.707,315.338-157.946h0L855.969,855.969,1171.676,698.3h0l157.946-315.707,315.245-157.669h.461L1757.514,0h-3.137l-110.71,222.342-315.8,157.669h0L1169.554,695.994,854.216,853.571h0L695.9,1169.554,380.564,1327.223h0L222.342,1643.207,0,1754.378v3.137l224-112Zm-39.486-39.486,157.853-315.707,315.338-157.669h0L816.483,816.483l315.338-157.669h0l157.945-315.8,315.522-157.853h0L1697.546.646h-3.229L1602.89,183.5,1288.382,340.524h0L1130.068,656.508,814.73,814.177h0L656.508,1130.16,341.354,1287.737h0l-158.5,315.984L0,1695.148v3.229l184.516-92.258Zm-39.486-39.394,157.853-315.8L618.682,1092.98h0L777,777l315.338-157.669h0l157.853-315.8L1565.526,145.86h0L1639.147,0h-3.229l-71.685,143.369L1248.9,301.038h0L1090.674,617.021,774.967,774.967h0L617.021,1090.674,301.684,1248.343h-.461L143.369,1564.326,0,1635.918v3.229l145.03-72.515ZM106,2474.174l157.853-315.338L579.2,2001.167h0l157.853-315.8L1052.387,1527.7h0l157.853-315.8,315.338-157.669h0l157.853-315.8,316.722-158.592h0l158.684-315.983,315.338-157.669h0L2527.222,0h-3.229l-51.48,103.882-315.8,157.669h0L1998.4,577.535,1683.154,735.2h-.461L1524.84,1051,1209.5,1208.579h0l-157.853,315.8-315.8,158.13h-.461L577.535,1998.492,262.2,2156.161h-.461L103.882,2472.513,0,2523.993v3.229l105.543-52.772ZM66.518,2434.78l157.946-315.8,315.245-157.669h0l157.853-315.8L1012.9,1487.844h0l158.776-316.168,315.338-157.669h0l157.854-315.8L1960.2,540.54h0l157.853-315.707,316.26-158.038h0L2467.993,0h-3.136l-32.2,64.581L2117.32,222.065h-.461L1959.005,538.048,1643.668,695.717h0L1485.353,1011.7,1170.015,1169.37h0L1011.7,1485.353,696.363,1643.022h0L538.048,1959.005,222.711,2116.675h0L64.581,2432.658,0,2464.856v3.137l66.149-33.028Zm118.459-355.286,315.338-157.669h0l157.946-315.8L973.967,1448.45h0l157.853-315.8,315.338-157.669h0l157.853-315.707L1921.18,500.961h0l158.314-315.984,315.337-157.3h.461L2408.763,0h-3.137l-12.455,25L2077.834,182.578h-.461L1919.519,498.193,1604.181,656.231h0L1446.328,971.938,1130.99,1129.606h-.461L972.676,1445.313l-315.8,158.222h0L498.193,1919.519,183.224,2077.188h0L24.91,2393.171,0,2405.626v3.137l27.032-13.469Zm236.365-236.549h0L579.2,1527.238,894.9,1369.293h0l157.946-315.707,315.338-157.669h0l157.945-315.8,315.338-157.669h0l157.853-315.8L2212.623,0h-6.365l-207.4,103.7h0L1840.546,419.681,1525.209,577.35h0L1366.894,893.334,1051.741,1051h0l-158.5,315.891L578,1524.563h0L419.681,1840.546,104.344,1998.215h-.461L0,2206.257v6.365l106-212.193ZM184.977,2553.332l157.853-315.8,315.338-157.669h0l158.315-316.076,315.338-157.669h0l157.945-315.707,315.522-157.946h0l158.5-315.984,315.338-157.669h0l157.854-315.8,315.338-157.669h.461L2645.036.83H2641.9l-91.428,182.855L2235.687,340.524h-.461L2077.373,656.508,1762.127,814.177h0L1603.72,1130.16l-315.338,157.577h0l-157.946,315.707L814.73,1761.389h0L656.508,2077.373,341.354,2235.041h0l-158.5,315.984L0,2642.453v3.136l184.516-92.258ZM461.29,1882.062h0l157.946-315.707,315.338-157.669h0l157.946-315.707,315.338-157.669h0L1565.71,619.6,1882.062,461.29h0l157.854-315.8L2330.99,0H2324.9l-286,143.184h-.462L1880.033,459.168,1564.7,616.837h0L1406.38,932.728,1091.043,1090.4h0L932.728,1406.38,617.39,1564.049h0L459.076,1880.033,143.738,2037.7h0L0,2324.9v6.366l145.491-290.982ZM263.858,1684.815l157.946-315.8,315.338-157.669h0L895.363,895.456,1210.7,738.064h.461l157.853-315.707,315.338-157.669h.462L1816.744,0h-3.137L1682.693,261.736,1367.355,419.4h-.461L1209.041,735.388,893.7,893.057h-.461L735.388,1209.041,420.05,1366.709h0L261.736,1682.693,0,1813.607v3.137L263.489,1685ZM145.491,2513.66l157.853-315.707,315.338-157.669h0L777,1724.3l315.338-157.669h0l157.853-315.8,315.338-157.669h0L1724.3,777l315.338-157.669h0l157.946-315.8L2512.922,145.86h0L2586.452,0h-3.229l-71.684,143.369L2196.2,301.038h0L2037.886,617.021,1722.548,774.967h0l-157.945,315.8-315.338,157.669h0l-157.853,315.8L774.967,1721.995h-.461L617.021,2037.886,301.684,2195.74h-.461l-157.853,315.8L0,2583.223v3.229l145.03-72.515ZM66.518,1487.475l157.946-315.8,315.245-157.669h0L698.024,698.024l315.338-157.669h0l158.315-315.891L1487.014,66.795h0L1520.688,0h-3.137l-32.2,64.581L1170.015,222.065h0L1011.7,538.048,696.363,695.717h0L538.048,1011.7,222.711,1169.37h0L64.581,1485.353,0,1517.551v3.137l66.149-33.028Zm78.973-868.332,157.853-315.8L618.682,145.675h0L691.935,0H688.8L617.021,143.369,301.684,301.038h-.461L143.369,617.021,0,688.706v3.229L145.03,619.42Zm78.973,78.881L382.317,382.317,697.655,224.648h0L810.3,0h-3.229L696.363,222.342l-315.8,157.669h0L222.342,695.994,0,807.073V810.3l224-112Zm39.394,39.486L421.8,421.8,737.141,264.135h0L869.439,0H866.3L735.388,261.736,420.05,419.4h0L261.736,735.388,0,866.3v3.137L263.489,738.064ZM184.977,658.63l157.853-315.8L658.168,185.162h0L750.426.646H747.2L655.862,183.5,341.354,340.524h0l-158.5,315.984L0,747.935v3.137l184.516-92.258ZM303.344,777,461.29,461.29,776.535,303.621h0L928.669,0h-3.137L774.967,301.222,459.537,458.891h-.461L301.222,774.967,0,925.532v3.137L302.975,777.181ZM199.646,0h-5.9L64.581,64.581h0L0,193.742v6.366L66.518,66.518ZM436.472,0h-6.366l-286,143.184h0L0,430.107v6.366L145.491,145.491ZM318.013,0h-6.366l-207.3,103.7h-.461L0,311.647v6.366L106,105.82Zm24.356,816.667h0L500.684,500.684,816.022,343.015h0L974.336,27.032,1028.492,0h-6.366l-49.45,24.725h-.461L814.361,340.709,499.023,498.193h-.83L340.709,814.361,25.371,972.03h0L0,1022.126v6.366l27.032-54.155ZM106,579.657l157.853-315.8L579.2,106.189h0L632.613,0h-3.137L577.535,103.882,262.2,261.551h-.461L103.882,577.535,0,629.476v3.137l105.543-52.772ZM461.29,935.127h0L619.143,619.143,934.481,461.29h0l157.946-315.8L1383.87,0H1377.5l-286,143.184h0L932.728,459.168,617.39,616.837h0L459.076,932.728,143.738,1090.4h0L0,1377.319v6.55l145.491-290.89Zm-79.434-78.973h0L540.17,540.17,855.508,382.5h0L1013.823,66.518,1146.951,0h-6.366L1012.162,64.581h0L853.848,380.2,538.51,537.864h0L380.2,853.848,64.581,1011.516h0L0,1140.677v6.274l66.518-133.036Zm39.486,39.486h0L579.657,579.657,894.9,421.988h0l157.946-315.8L1265.318,0h-6.365L1051.741,103.7h0l-158.5,315.984L578,577.35h0L419.681,893.334,104.344,1051h-.461L0,1258.952v6.366l106-212.193ZM66.518,540.17,224.464,224.464,539.709,66.795h0L573.475,0h-3.229l-32.2,64.581L222.711,222.065h0L64.581,538.048,0,570.246v3.229l66.149-33.121ZM184.977,184.977l315.338-157.3h0L514.246,0h-3.137L498.193,25,183.224,182.578h0L24.91,498.193,0,511.109v3.137l27.032-13.562ZM303.344,1724.3,461.29,1408.5l315.338-157.669h0l157.853-315.8,315.338-157.669h.461L1408.5,461.29,1723.84,303.621h.461L1875.974,0h-3.137L1722.179,301.222,1406.841,458.891h-.461L1248.527,774.967,933.189,932.636h-.461L774.967,1248.527,459.537,1406.2h-.461L301.222,1722.179,0,1872.837v3.229l302.975-151.487Z" fill="#fff" opacity="0.06"/>
</svg>
