<svg xmlns="http://www.w3.org/2000/svg" width="193.552" height="30.007" viewBox="0 0 193.552 30.007">
  <g id="Group_104" data-name="Group 104" transform="translate(-696.42 -2940)">
    <g id="star-01" transform="translate(752 2866.45)">
      <g id="objects" transform="translate(106.42 73.55)">
        <path id="Path_13" data-name="Path 13" d="M112.443,103.557,122.2,97.6l9.749,5.96-2.656-11.117,8.684-7.429L126.578,84.1,122.2,73.55,117.81,84.1l-11.39.909,8.684,7.429Z" transform="translate(-106.42 -73.55)" fill="#2c2c2c"/>
      </g>
    </g>
    <g id="star-01-2" data-name="star-01" transform="translate(711 2866.45)">
      <g id="objects-2" data-name="objects" transform="translate(106.42 73.55)">
        <path id="Path_13-2" data-name="Path 13" d="M112.443,103.557,122.2,97.6l9.749,5.96-2.656-11.117,8.684-7.429L126.578,84.1,122.2,73.55,117.81,84.1l-11.39.909,8.684,7.429Z" transform="translate(-106.42 -73.55)" fill="#2c2c2c"/>
      </g>
    </g>
    <g id="star-01-3" data-name="star-01" transform="translate(672 2866.45)">
      <g id="objects-3" data-name="objects" transform="translate(106.42 73.55)">
        <path id="Path_13-3" data-name="Path 13" d="M112.443,103.557,122.2,97.6l9.749,5.96-2.656-11.117,8.684-7.429L126.578,84.1,122.2,73.55,117.81,84.1l-11.39.909,8.684,7.429Z" transform="translate(-106.42 -73.55)" fill="#2c2c2c"/>
      </g>
    </g>
    <g id="star-01-4" data-name="star-01" transform="translate(631 2866.45)">
      <g id="objects-4" data-name="objects" transform="translate(106.42 73.55)">
        <path id="Path_13-4" data-name="Path 13" d="M112.443,103.557,122.2,97.6l9.749,5.96-2.656-11.117,8.684-7.429L126.578,84.1,122.2,73.55,117.81,84.1l-11.39.909,8.684,7.429Z" transform="translate(-106.42 -73.55)" fill="#2c2c2c"/>
      </g>
    </g>
    <g id="star-01-5" data-name="star-01" transform="translate(590 2866.45)">
      <g id="objects-5" data-name="objects" transform="translate(106.42 73.55)">
        <path id="Path_13-5" data-name="Path 13" d="M112.443,103.557,122.2,97.6l9.749,5.96-2.656-11.117,8.684-7.429L126.578,84.1,122.2,73.55,117.81,84.1l-11.39.909,8.684,7.429Z" transform="translate(-106.42 -73.55)" fill="#2c2c2c"/>
      </g>
    </g>
  </g>
</svg>
